<svg width="14" height="14" viewBox="0 0 14 14" fill="none" xmlns="http://www.w3.org/2000/svg">
<path d="M11.1952 0.241398C10.7063 0.00142895 8.22806 0.275523 6.44044 1.98965C3.62513 4.80146 3.69272 8.50446 3.69272 8.50446C3.69272 8.50446 3.59997 8.88574 3.20316 8.33296C2.33516 7.22718 2.78994 4.68224 2.84069 4.32743C2.91244 3.82846 2.59416 3.81315 2.46138 3.97852C-0.674405 8.33274 2.15775 11.8986 4.01253 13.0304C6.18341 14.3549 10.4668 14.3545 12.1732 10.5961C14.2975 5.91555 11.8075 0.541741 11.1952 0.241398Z" fill="#79AC6A"/>
<path d="M11.1458 4.37124C11.3635 2.91152 11.3648 1.5054 11.1859 0.238395C10.6805 0.00477043 8.21851 0.283895 6.43986 1.98971C3.62455 4.80152 3.69214 8.50452 3.69214 8.50452C3.69214 8.50452 3.59939 8.8858 3.20258 8.33302C2.33458 7.22724 2.78936 4.6823 2.84011 4.32749C2.91186 3.82852 2.59358 3.81321 2.4608 3.97858C0.565547 6.61015 0.851454 8.95252 1.78267 10.645C2.71477 11.6458 3.77548 12.3036 4.75789 12.4501C7.55789 12.8679 10.4174 9.2509 11.1458 4.37124Z" fill="#CAE5C2"/>
<path d="M11.1465 4.3712C11.3641 2.91148 11.3654 1.50535 11.1865 0.238353C10.6812 0.00472796 8.7201 0.81629 6.94123 2.52254C4.12592 5.33413 3.69279 8.50448 3.69279 8.50448C3.69279 8.50448 3.60004 8.88576 3.20323 8.33298C2.33523 7.2272 2.6336 5.31685 2.68457 4.96226C2.75654 4.46307 2.43804 4.44798 2.30526 4.61335C0.410229 7.24492 0.852323 8.9527 1.78376 10.6449C2.71585 11.6457 3.77657 12.3035 4.75898 12.4501C7.55854 12.8679 10.418 9.25085 11.1465 4.3712Z" fill="#99C08E"/>
</svg>
